# xmcd CD database file
#
# Track frame offsets:
#	150
#	31050
#	55404
#	83646
#	117570
#	142304
#	167716
#	192943
#	221741
#
# Disc length: 3197 seconds
#
# Revision: 0
# Processed by: cddbd v1.5.1PL2 Copyright (c) Steve Scherf et al.
# Submitted via: CDex 1.51
#
DISCID=840c7b09
DTITLE=Max Hacker - Who The Heck Is Max Hacker?
DYEAR=2005
DGENRE=Jazz
TTITLE0=Before
TTITLE1=Day Dream
TTITLE2=Graduation
TTITLE3=Sleep Is A Rose
TTITLE4=U.M.M.G.
TTITLE5=Murray Hill
TTITLE6=To You
TTITLE7=Lotus Blossom
TTITLE8=Peegee
EXTD=YEAR: 2005
EXTT0=
EXTT1=
EXTT2=
EXTT3=
EXTT4=
EXTT5=
EXTT6=
EXTT7=
EXTT8=
PLAYORDER=
